<svg id="visual" viewBox="0 0 900 600" width="900" height="600" xmlns="http://www.w3.org/2000/svg" xmlns:xlink="http://www.w3.org/1999/xlink" version="1.1"><path d="M0 79L82 79L82 103L164 103L164 61L245 61L245 67L327 67L327 49L409 49L409 49L491 49L491 85L573 85L573 67L655 67L655 61L736 61L736 91L818 91L818 61L900 61L900 73L900 0L900 0L818 0L818 0L736 0L736 0L655 0L655 0L573 0L573 0L491 0L491 0L409 0L409 0L327 0L327 0L245 0L245 0L164 0L164 0L82 0L82 0L0 0Z" fill="#fa7268"></path><path d="M0 217L82 217L82 163L164 163L164 121L245 121L245 175L327 175L327 115L409 115L409 145L491 145L491 247L573 247L573 115L655 115L655 217L736 217L736 175L818 175L818 115L900 115L900 211L900 71L900 59L818 59L818 89L736 89L736 59L655 59L655 65L573 65L573 83L491 83L491 47L409 47L409 47L327 47L327 65L245 65L245 59L164 59L164 101L82 101L82 77L0 77Z" fill="#ea5e66"></path><path d="M0 301L82 301L82 271L164 271L164 235L245 235L245 301L327 301L327 181L409 181L409 241L491 241L491 301L573 301L573 241L655 241L655 295L736 295L736 223L818 223L818 193L900 193L900 289L900 209L900 113L818 113L818 173L736 173L736 215L655 215L655 113L573 113L573 245L491 245L491 143L409 143L409 113L327 113L327 173L245 173L245 119L164 119L164 161L82 161L82 215L0 215Z" fill="#d84a64"></path><path d="M0 373L82 373L82 415L164 415L164 487L245 487L245 421L327 421L327 469L409 469L409 445L491 445L491 469L573 469L573 403L655 403L655 421L736 421L736 415L818 415L818 475L900 475L900 487L900 287L900 191L818 191L818 221L736 221L736 293L655 293L655 239L573 239L573 299L491 299L491 239L409 239L409 179L327 179L327 299L245 299L245 233L164 233L164 269L82 269L82 299L0 299Z" fill="#c53762"></path><path d="M0 601L82 601L82 601L164 601L164 601L245 601L245 601L327 601L327 601L409 601L409 601L491 601L491 601L573 601L573 601L655 601L655 601L736 601L736 601L818 601L818 601L900 601L900 601L900 485L900 473L818 473L818 413L736 413L736 419L655 419L655 401L573 401L573 467L491 467L491 443L409 443L409 467L327 467L327 419L245 419L245 485L164 485L164 413L82 413L82 371L0 371Z" fill="#b0235f"></path></svg>