<svg id="visual" viewBox="0 0 900 600" width="900" height="600" xmlns="http://www.w3.org/2000/svg" xmlns:xlink="http://www.w3.org/1999/xlink" version="1.1"><path d="M0 139L8.3 136C16.7 133 33.3 127 50 128C66.7 129 83.3 137 100 144C116.7 151 133.3 157 150 167C166.7 177 183.3 191 200 193C216.7 195 233.3 185 250 174C266.7 163 283.3 151 300 151C316.7 151 333.3 163 350 171C366.7 179 383.3 183 400 177C416.7 171 433.3 155 450 150C466.7 145 483.3 151 500 152C516.7 153 533.3 149 550 142C566.7 135 583.3 125 600 119C616.7 113 633.3 111 650 123C666.7 135 683.3 161 700 162C716.7 163 733.3 139 750 122C766.7 105 783.3 95 800 107C816.7 119 833.3 153 850 164C866.7 175 883.3 163 891.7 157L900 151L900 0L891.7 0C883.3 0 866.7 0 850 0C833.3 0 816.7 0 800 0C783.3 0 766.7 0 750 0C733.3 0 716.7 0 700 0C683.3 0 666.7 0 650 0C633.3 0 616.7 0 600 0C583.3 0 566.7 0 550 0C533.3 0 516.7 0 500 0C483.3 0 466.7 0 450 0C433.3 0 416.7 0 400 0C383.3 0 366.7 0 350 0C333.3 0 316.7 0 300 0C283.3 0 266.7 0 250 0C233.3 0 216.7 0 200 0C183.3 0 166.7 0 150 0C133.3 0 116.7 0 100 0C83.3 0 66.7 0 50 0C33.3 0 16.7 0 8.3 0L0 0Z" fill="#0066ff"></path><path d="M0 235L8.3 231C16.7 227 33.3 219 50 217C66.7 215 83.3 219 100 222C116.7 225 133.3 227 150 232C166.7 237 183.3 245 200 249C216.7 253 233.3 253 250 241C266.7 229 283.3 205 300 202C316.7 199 333.3 217 350 226C366.7 235 383.3 235 400 227C416.7 219 433.3 203 450 200C466.7 197 483.3 207 500 218C516.7 229 533.3 241 550 241C566.7 241 583.3 229 600 211C616.7 193 633.3 169 650 171C666.7 173 683.3 201 700 202C716.7 203 733.3 177 750 169C766.7 161 783.3 171 800 196C816.7 221 833.3 261 850 265C866.7 269 883.3 237 891.7 221L900 205L900 149L891.7 155C883.3 161 866.7 173 850 162C833.3 151 816.7 117 800 105C783.3 93 766.7 103 750 120C733.3 137 716.7 161 700 160C683.3 159 666.7 133 650 121C633.3 109 616.7 111 600 117C583.3 123 566.7 133 550 140C533.3 147 516.7 151 500 150C483.3 149 466.7 143 450 148C433.3 153 416.7 169 400 175C383.3 181 366.7 177 350 169C333.3 161 316.7 149 300 149C283.3 149 266.7 161 250 172C233.3 183 216.7 193 200 191C183.3 189 166.7 175 150 165C133.3 155 116.7 149 100 142C83.3 135 66.7 127 50 126C33.3 125 16.7 131 8.3 134L0 137Z" fill="#0957ea"></path><path d="M0 349L8.3 352C16.7 355 33.3 361 50 363C66.7 365 83.3 363 100 370C116.7 377 133.3 393 150 401C166.7 409 183.3 409 200 408C216.7 407 233.3 405 250 393C266.7 381 283.3 359 300 355C316.7 351 333.3 365 350 373C366.7 381 383.3 383 400 383C416.7 383 433.3 381 450 380C466.7 379 483.3 379 500 375C516.7 371 533.3 363 550 361C566.7 359 583.3 363 600 361C616.7 359 633.3 351 650 356C666.7 361 683.3 379 700 376C716.7 373 733.3 349 750 350C766.7 351 783.3 377 800 385C816.7 393 833.3 383 850 382C866.7 381 883.3 389 891.7 393L900 397L900 203L891.7 219C883.3 235 866.7 267 850 263C833.3 259 816.7 219 800 194C783.3 169 766.7 159 750 167C733.3 175 716.7 201 700 200C683.3 199 666.7 171 650 169C633.3 167 616.7 191 600 209C583.3 227 566.7 239 550 239C533.3 239 516.7 227 500 216C483.3 205 466.7 195 450 198C433.3 201 416.7 217 400 225C383.3 233 366.7 233 350 224C333.3 215 316.7 197 300 200C283.3 203 266.7 227 250 239C233.3 251 216.7 251 200 247C183.3 243 166.7 235 150 230C133.3 225 116.7 223 100 220C83.3 217 66.7 213 50 215C33.3 217 16.7 225 8.3 229L0 233Z" fill="#0c47d4"></path><path d="M0 433L8.3 433C16.7 433 33.3 433 50 431C66.7 429 83.3 425 100 434C116.7 443 133.3 465 150 468C166.7 471 183.3 455 200 448C216.7 441 233.3 443 250 436C266.7 429 283.3 413 300 415C316.7 417 333.3 437 350 450C366.7 463 383.3 469 400 466C416.7 463 433.3 451 450 450C466.7 449 483.3 459 500 457C516.7 455 533.3 441 550 437C566.7 433 583.3 439 600 431C616.7 423 633.3 401 650 402C666.7 403 683.3 427 700 434C716.7 441 733.3 431 750 434C766.7 437 783.3 453 800 451C816.7 449 833.3 429 850 431C866.7 433 883.3 457 891.7 469L900 481L900 395L891.7 391C883.3 387 866.7 379 850 380C833.3 381 816.7 391 800 383C783.3 375 766.7 349 750 348C733.3 347 716.7 371 700 374C683.3 377 666.7 359 650 354C633.3 349 616.7 357 600 359C583.3 361 566.7 357 550 359C533.3 361 516.7 369 500 373C483.3 377 466.7 377 450 378C433.3 379 416.7 381 400 381C383.3 381 366.7 379 350 371C333.3 363 316.7 349 300 353C283.3 357 266.7 379 250 391C233.3 403 216.7 405 200 406C183.3 407 166.7 407 150 399C133.3 391 116.7 375 100 368C83.3 361 66.7 363 50 361C33.3 359 16.7 353 8.3 350L0 347Z" fill="#0b39c0"></path><path d="M0 475L8.3 478C16.7 481 33.3 487 50 485C66.7 483 83.3 473 100 481C116.7 489 133.3 515 150 517C166.7 519 183.3 497 200 495C216.7 493 233.3 511 250 505C266.7 499 283.3 469 300 465C316.7 461 333.3 483 350 496C366.7 509 383.3 513 400 516C416.7 519 433.3 521 450 521C466.7 521 483.3 519 500 514C516.7 509 533.3 501 550 499C566.7 497 583.3 501 600 495C616.7 489 633.3 473 650 476C666.7 479 683.3 501 700 503C716.7 505 733.3 487 750 489C766.7 491 783.3 513 800 513C816.7 513 833.3 491 850 491C866.7 491 883.3 513 891.7 524L900 535L900 479L891.7 467C883.3 455 866.7 431 850 429C833.3 427 816.7 447 800 449C783.3 451 766.7 435 750 432C733.3 429 716.7 439 700 432C683.3 425 666.7 401 650 400C633.3 399 616.7 421 600 429C583.3 437 566.7 431 550 435C533.3 439 516.7 453 500 455C483.3 457 466.7 447 450 448C433.3 449 416.7 461 400 464C383.3 467 366.7 461 350 448C333.3 435 316.7 415 300 413C283.3 411 266.7 427 250 434C233.3 441 216.7 439 200 446C183.3 453 166.7 469 150 466C133.3 463 116.7 441 100 432C83.3 423 66.7 427 50 429C33.3 431 16.7 431 8.3 431L0 431Z" fill="#062aac"></path><path d="M0 601L8.3 601C16.7 601 33.3 601 50 601C66.7 601 83.3 601 100 601C116.7 601 133.3 601 150 601C166.7 601 183.3 601 200 601C216.7 601 233.3 601 250 601C266.7 601 283.3 601 300 601C316.7 601 333.3 601 350 601C366.7 601 383.3 601 400 601C416.7 601 433.3 601 450 601C466.7 601 483.3 601 500 601C516.7 601 533.3 601 550 601C566.7 601 583.3 601 600 601C616.7 601 633.3 601 650 601C666.7 601 683.3 601 700 601C716.7 601 733.3 601 750 601C766.7 601 783.3 601 800 601C816.7 601 833.3 601 850 601C866.7 601 883.3 601 891.7 601L900 601L900 533L891.7 522C883.3 511 866.7 489 850 489C833.3 489 816.7 511 800 511C783.3 511 766.7 489 750 487C733.3 485 716.7 503 700 501C683.3 499 666.7 477 650 474C633.3 471 616.7 487 600 493C583.3 499 566.7 495 550 497C533.3 499 516.7 507 500 512C483.3 517 466.7 519 450 519C433.3 519 416.7 517 400 514C383.3 511 366.7 507 350 494C333.3 481 316.7 459 300 463C283.3 467 266.7 497 250 503C233.3 509 216.7 491 200 493C183.3 495 166.7 517 150 515C133.3 513 116.7 487 100 479C83.3 471 66.7 481 50 483C33.3 485 16.7 479 8.3 476L0 473Z" fill="#001b98"></path></svg>